<?xml version="1.0" encoding="UTF-8"?>
<svg id="Layer_1" xmlns="http://www.w3.org/2000/svg" viewBox="0 0 231.78 60">
  <defs>
    <style>
      .cls-1 {
        fill: #000;
      }
    </style>
  </defs>
  <g>
    <path class="cls-1" d="M217.54,45.59c.18-1.63.34-3.19.51-4.79,1.06.06,2.06.19,3.06.17,3-.06,4.49-2.16,3.66-5.23-.11.17-.2.29-.27.41-1.3,2.34-3.41,3.08-5.92,2.92-2.36-.16-4.04-1.4-4.95-3.56-.39-.92-.74-1.93-.77-2.91-.1-3.24-.04-6.49-.04-9.79h6.91c0,2.53,0,5.02,0,7.51,0,.53.04,1.07.12,1.6.12.83.49,1.52,1.37,1.75.93.25,1.76,0,2.43-.69.76-.8,1.02-1.8,1.03-2.87,0-2.4,0-4.8,0-7.28h7.02c.01.31.04.64.04.97,0,3.92.04,7.84-.02,11.76-.02,1.32-.15,2.66-.43,3.94-.7,3.18-2.71,5.21-5.84,6.1-2.61.74-5.23.67-7.93-.03Z"/>
    <path class="cls-1" d="M186.21,39.63h-6.94c0-2.25,0-4.46,0-6.66,0-.92,0-1.83-.08-2.75-.07-.96-.4-1.81-1.42-2.15-1.07-.36-2.07-.16-2.92.58-.92.81-1.22,1.89-1.23,3.07,0,2.43,0,4.87,0,7.3,0,.18-.02.37-.03.6h-6.97v-16.77h6.84v3.34c.29-.37.42-.51.51-.67,1.37-2.24,3.44-3.07,5.96-2.93,2.4.13,4.27,1.22,5.27,3.43.51,1.13.92,2.4.96,3.62.13,3.3.04,6.62.04,9.98Z"/>
    <path class="cls-1" d="M75.22,30.92v8.71h-7.13v-22.92h15.68v4.93h-8.49v4.72h7.91v4.56h-7.98Z"/>
    <path class="cls-1" d="M111.19,39.96c-.95-.19-2.29-.33-3.53-.75-3.8-1.29-6.04-4.78-5.7-8.65.37-4.11,3.17-7.08,7.31-7.78,1.93-.33,3.85-.29,5.73.25,4.12,1.18,6.46,4.52,6.21,8.83-.23,3.98-3.17,7.12-7.3,7.79-.78.13-1.57.17-2.73.3ZM108.51,31.26c.01,2.62,2.15,4.29,4.31,3.34,1.38-.61,1.9-1.8,1.94-3.22.04-1.48-.42-2.74-1.82-3.49-.16-.09-.35-.14-.53-.19-2.17-.5-3.91,1.09-3.9,3.56Z"/>
    <path class="cls-1" d="M137.08,22.82h6.75c0,1.23,0,2.42,0,3.61,0,1.93.02,3.86-.02,5.78-.08,3.89-2.37,6.65-6.19,7.4-1.94.39-3.9.36-5.83-.12-3.29-.83-5.51-3.11-5.73-6.48-.22-3.36-.05-6.75-.05-10.18h6.81c0,.54,0,1.07,0,1.6,0,2.43-.02,4.87.01,7.3,0,.56.1,1.14.29,1.66.31.84,1.22,1.27,2.18,1.13.92-.13,1.51-.68,1.64-1.59.12-.81.11-1.64.11-2.46.01-2.52,0-5.05,0-7.66Z"/>
    <path class="cls-1" d="M208.13,31.65c-3.27.42-6.49.83-9.71,1.24.65,2.3,3.85,2.84,8.23,1.35.25,1.33.52,2.65.72,3.97.03.17-.24.51-.44.59-4.2,1.58-8.38,1.71-12.28-.72-3.12-1.95-3.93-5.09-3.33-8.54.6-3.45,2.85-5.59,6.14-6.5,1.37-.38,2.89-.49,4.3-.32,3.83.46,6,3.09,6.37,7.4.04.47,0,.94,0,1.54ZM202.79,28.78c.22-1.3-1.02-2.28-2.25-2.2-1.59.1-2.85,1.57-2.68,3.24,1.66-.35,3.3-.7,4.93-1.04Z"/>
    <path class="cls-1" d="M89.93,16.29h7.16c.02.27.04.48.04.7,0,4.83.02,9.67-.02,14.5,0,1.06-.13,2.15-.39,3.18-.72,2.84-2.52,4.61-5.47,5.05-2.24.34-4.4.1-6.42-1.01-.54-.3-.76-.62-.5-1.29.47-1.2.84-2.44,1.27-3.73.46.13.87.25,1.29.35,1.89.46,3.04-.41,3.05-2.36.02-4.77,0-9.54,0-14.31,0-.34,0-.69,0-1.09Z"/>
    <path class="cls-1" d="M156.34,39.64h-6.99v-16.81h6.82v3.55c.06.05.13.09.19.14.93-2.44,2.58-3.86,5.34-3.94.28,2.01.55,3.99.81,5.91-1.14.06-2.21.01-3.24.19-1.91.32-2.9,1.56-2.92,3.5-.02,2.46,0,4.92,0,7.46Z"/>
  </g>
  <g>
    <path class="cls-1" d="M22.76,18.21c.06-.04.08-.07.12-.08,1.65-.54,2.32-1.77,2.41-3.41.01-.27.01-.53,0-.8-.03-1.51-.84-2.34-2.35-2.42-1.31-.07-2.4.44-3.3,1.35-.86.88-1.27,1.98-1.54,3.22.7-.29,1.34-.5,2.04-.38,0,.03.02.06,0,.08-1.14,1.63-2.33,3.22-3.81,4.57-1.05.96-2.28,1.37-3.67,1.41-.76.02-1.44-.24-2.08-.64,0,1.21,1.57,2.98,3.01,3.31,1.64.38,3.12-.03,4.46-1.09-.97,2.04-1.19,4.2-1.04,6.42-.68.07-1.33.11-1.98.2-1.46.19-2.84.63-4.09,1.43-.46.3-.95.39-1.48.26-.45-.12-.91-.2-1.37-.3-.99-.21-1.65.37-1.56,1.37.02.24.03.48.05.72.04.46-.13.83-.41,1.18-.33.41-.65.84-.9,1.31-.3.56-.19,1.07.2,1.37.41.31,1,.27,1.46-.15.25-.23.47-.5.63-.8,1.03-1.91,2.63-3.16,4.61-3.92,2.94-1.13,5.85-1.03,8.69.33,2.45,1.17,3.78,3.24,4.48,5.78.07.27.13.54.19.81,0,.03,0,.07,0,.13h-2.19c-.88-3.64-4.29-6.13-8.12-5.81-3.14.26-5.96,2.76-6.68,5.92-.66,2.92.59,7.31,5.17,8.9-2.02.13-3.95.47-5.85,1.05-.26.08-.34-.12-.45-.25-2.03-2.49-3.63-5.24-4.77-8.24-1.61-4.22-2.25-8.58-1.91-13.08C1.73,14.97,10.97,4.05,23.67.88c13.56-3.38,27.88,3.22,34.16,15.73,2.26,4.51,3.34,9.29,3.23,14.33-.11,4.79-1.29,9.3-3.56,13.53-.11.21-.33.4-.55.52-.51.27-1.05.48-1.68.77.11-.19.18-.29.23-.39,1.51-2.64,1.58-5.33-.02-7.92-1.6-2.59-4.03-3.76-7.07-3.58-.56.03-1.12.2-1.67.34-.2.05-.31.06-.42-.15-.27-.5-.56-.99-.89-1.56.43,0,.79,0,1.15,0,.52,0,.71-.18.71-.71,0-1.05,0-2.1,0-3.15,0-.52-.2-.71-.72-.71-.2,0-.41.02-.61,0-.44-.04-.76.12-1.05.46-.24.28-.61.45-.97.71-.4-1.56-1.4-2.48-2.68-3.15-.22-.12-.5-.19-.75-.19-1.66-.02-3.32-.02-4.98,0-.42,0-.75-.12-1.04-.43-1-1.03-1.95-2.1-2.55-3.42-.23-.5-.37-1.04-.56-1.57.37-.04.66-.05.94-.12.98-.25,1.65-1.09,1.7-2.17.03-.63,0-1.26,0-1.95.87-.2,1.7-.62,1.83-1.83-.67.23-1.32.35-1.99.21-.22-.05-.45-.1-.64-.22-1.92-1.22-3.93.52-4.16,2.02-.11.74.03,1.43.27,2.12.07.2.16.4.24.6-.02.02-.03.06-.05.06-1.75.56-2.56,1.93-3.03,3.57-.19.68-.31,1.38-.48,2.12-.51-.4-.99-.82-1.51-1.19-.32-.22-.41-.46-.38-.85.12-1.28-.3-2.44-.87-3.56-.16-.3-.33-.6-.5-.92Z"/>
    <path class="cls-1" d="M18.07,48.6c.72-.38,1.55-.72,2.26-1.23.53-.38,1.04-.51,1.67-.51,3.53.02,7.07,0,10.6.02,2.19.01,3.74-.94,4.7-2.9,1.65-3.36,3.33-6.71,4.99-10.06.03-.07.06-.14.1-.2.2-.34.54-.37.75-.03.37.61.72,1.24,1.09,1.87-2.35,2.18-3.3,4.81-2.42,7.91.87,3.07,3.04,4.83,6.24,5.48-.87.34-1.66.67-2.45.97-2.2.84-4.45,1.52-6.8,1.82-2.21.28-4.41.22-6.57-.23-2.93-.61-5.83-1.39-8.76-2.02-1.64-.35-3.31-.56-4.97-.83-.17-.03-.34-.04-.42-.05Z"/>
    <path class="cls-1" d="M15.45,55.91c-4.09-.08-7.91.97-11.56,2.74-.85.41-1.7.83-2.56,1.24-.35.17-.69.14-1-.12-.29-.24-.41-.57-.28-.92.08-.22.26-.46.45-.57,3.01-1.53,6.06-2.99,9.41-3.67,2.56-.52,5.15-.62,7.75-.45,3.46.21,6.78,1.11,10.12,1.97,2.26.58,4.53,1.07,6.86,1.27,2.88.25,5.68-.18,8.42-1.03,3.08-.95,6-2.28,8.94-3.58,2.78-1.23,5.53-2.49,8.3-3.74.55-.25,1.04-.14,1.3.3.29.5.08,1.07-.51,1.34-1.71.78-3.42,1.59-5.15,2.33-3.65,1.56-7.28,3.16-10.98,4.61-2.99,1.17-6.12,1.76-9.36,1.65-2.39-.08-4.72-.53-7.04-1.09-2.29-.55-4.56-1.14-6.86-1.65-2.06-.46-4.15-.63-6.26-.64Z"/>
    <path class="cls-1" d="M18.85,39.53c-.66,0-1.24-.03-1.81,0-1.09.07-1.95,1.01-1.95,2.15.15,0,.31.02.47.02,5.02,0,10.03,0,15.05,0,1.2,0,2.05.62,2.31,1.69.04.14.04.3.07.51h-.51c-4.66,0-9.32,0-13.98,0-.28,0-.6.09-.85.23-1.58.89-3.57.39-4.53-1.15-.95-1.54-.51-3.56.99-4.56,1.49-1,3.52-.63,4.57.82.04.06.08.13.18.28Z"/>
    <path class="cls-1" d="M46.44,39.36c.52.9,1.03,1.78,1.54,2.65.28.48.72.71,1.27.65.52-.06.88-.36,1.06-.86.14-.39.07-.77-.14-1.13-.43-.74-.86-1.49-1.29-2.23-.06-.11-.11-.22-.17-.33,1.22-.33,2.82.57,3.42,1.92.68,1.52.15,3.3-1.25,4.2-1.39.89-3.21.64-4.31-.6-1.06-1.19-1.14-3.05-.12-4.27Z"/>
    <path class="cls-1" d="M31.26,30.2c.23-1.17.45-2.29.68-3.5.42.44.8.8,1.13,1.21.37.46.79.63,1.39.62,1.82-.05,3.64-.01,5.47-.02.24,0,.39.07.52.28.38.62.8,1.23,1.19,1.85.07.12.05.29.08.44-.16-.01-.36.03-.47-.05-.94-.74-2-.88-3.16-.84-2.12.07-4.25.02-6.38.02h-.44Z"/>
    <path class="cls-1" d="M31.36,38.03c.02-.06.06-.21.13-.34.67-1.42,1.34-2.83,2.01-4.25.24-.51.67-.7,1.1-.49.43.2.56.66.32,1.17-.68,1.44-1.36,2.88-2.04,4.31-.19.4-.56.58-.93.48-.36-.1-.6-.41-.58-.87Z"/>
    <path class="cls-1" d="M22.6,26.47c1.07.91,2.07,1.77,3.08,2.62,0,.03-.02.05-.03.08-1.26-.13-2.52-.26-3.84-.4.27-.77.52-1.5.79-2.3Z"/>
  </g>
</svg>